# xmcd
#
# Track frame offsets: 
#        150
#        7654
#        26284
#        49594
#        69424
#        83014
#        96244
#        113258
#        126674
#        140024
#        156827
#        171617
#        186767
#        204196
#        224386
#        242416
#        255046
#        266505
#        278535
#
# Disc length: 3885 seconds
#
# Revision: 0
# Processed by: cddbd v1.5.2PL0 Copyright (c) Steve Scherf et al.
# Submitted via: ExactAudioCopy v1.0b3
#
DISCID=f30f2b13
DTITLE=Francesco Zeta - Unmistakable
DYEAR=2012
DGENRE=Hardstyle
TTITLE0=Unmistakable Intro
TTITLE1=Superstyle
TTITLE2=Unmistakable
TTITLE3=Parara Ra Ra
TTITLE4=Robot
TTITLE5=Rock N' Rave
TTITLE6=Oh
TTITLE7=Burn Me Feat. Ivan Talko
TTITLE8=A New Fairytale
TTITLE9=Greatest DJ
TTITLE10=Dirty Play Feat. Sincera Lady
TTITLE11=Atlantis
TTITLE12=NZT
TTITLE13=Stone Age
TTITLE14=Kill Me Feat. Ivan Talko
TTITLE15=Hardstep
TTITLE16=Should I Know
TTITLE17=I Can't Get It Out Of My Head
TTITLE18=Your Love
EXTD=
EXTT0=
EXTT1=
EXTT2=
EXTT3=
EXTT4=
EXTT5=
EXTT6=
EXTT7=
EXTT8=
EXTT9=
EXTT10=
EXTT11=
EXTT12=
EXTT13=
EXTT14=
EXTT15=
EXTT16=
EXTT17=
EXTT18=
PLAYORDER=
